<svg xmlns="http://www.w3.org/2000/svg" width="720" height="360" viewBox="0 0 720 360">
<rect width="100%" height="100%" fill="#ffffff"/>
<text x="360.0" y="28" text-anchor="middle" font-family="sans-serif" font-size="18" font-weight="700">Outcome breakdown</text>
<line x1="64" y1="284" x2="696" y2="284" stroke="#222" stroke-width="1"/>
<line x1="64" y1="52" x2="64" y2="284" stroke="#222" stroke-width="1"/>
<line x1="64" y1="284.0" x2="696" y2="284.0" stroke="#e6e6e6" stroke-width="1"/>
<text x="56" y="288.0" text-anchor="end" font-family="sans-serif" font-size="11" fill="#444">0</text>
<line x1="64" y1="237.6" x2="696" y2="237.6" stroke="#e6e6e6" stroke-width="1"/>
<text x="56" y="241.6" text-anchor="end" font-family="sans-serif" font-size="11" fill="#444">3</text>
<line x1="64" y1="191.2" x2="696" y2="191.2" stroke="#e6e6e6" stroke-width="1"/>
<text x="56" y="195.2" text-anchor="end" font-family="sans-serif" font-size="11" fill="#444">6</text>
<line x1="64" y1="144.8" x2="696" y2="144.8" stroke="#e6e6e6" stroke-width="1"/>
<text x="56" y="148.8" text-anchor="end" font-family="sans-serif" font-size="11" fill="#444">9</text>
<line x1="64" y1="98.4" x2="696" y2="98.4" stroke="#e6e6e6" stroke-width="1"/>
<text x="56" y="102.4" text-anchor="end" font-family="sans-serif" font-size="11" fill="#444">12</text>
<line x1="64" y1="52.0" x2="696" y2="52.0" stroke="#e6e6e6" stroke-width="1"/>
<text x="56" y="56.0" text-anchor="end" font-family="sans-serif" font-size="11" fill="#444">15</text>
<rect x="82.0" y="52.0" width="104.8" height="232.0" fill="#27ae60" rx="3"/>
<text x="134.4" y="46.0" text-anchor="middle" font-family="sans-serif" font-size="11" fill="#222">15.0</text>
<text x="134.4" y="306" text-anchor="middle" font-family="sans-serif" font-size="12" fill="#222">TP</text>
<rect x="204.8" y="98.4" width="104.8" height="185.6" fill="#27ae60" rx="3"/>
<text x="257.2" y="92.4" text-anchor="middle" font-family="sans-serif" font-size="11" fill="#222">12.0</text>
<text x="257.2" y="306" text-anchor="middle" font-family="sans-serif" font-size="12" fill="#222">TN</text>
<rect x="327.6" y="284.0" width="104.8" height="0.0" fill="#27ae60" rx="3"/>
<text x="380.0" y="278.0" text-anchor="middle" font-family="sans-serif" font-size="11" fill="#222">0.0</text>
<text x="380.0" y="306" text-anchor="middle" font-family="sans-serif" font-size="12" fill="#222">FP</text>
<rect x="450.4" y="284.0" width="104.8" height="0.0" fill="#27ae60" rx="3"/>
<text x="502.8" y="278.0" text-anchor="middle" font-family="sans-serif" font-size="11" fill="#222">0.0</text>
<text x="502.8" y="306" text-anchor="middle" font-family="sans-serif" font-size="12" fill="#222">FN</text>
<rect x="573.2" y="284.0" width="104.8" height="0.0" fill="#27ae60" rx="3"/>
<text x="625.6" y="278.0" text-anchor="middle" font-family="sans-serif" font-size="11" fill="#222">0.0</text>
<text x="625.6" y="306" text-anchor="middle" font-family="sans-serif" font-size="12" fill="#222">infra_error</text>
</svg>
