<svg xmlns="http://www.w3.org/2000/svg" width="750" height="360" viewBox="0 0 750 360">
<rect width="100%" height="100%" fill="#ffffff"/>
<text x="375.0" y="28" text-anchor="middle" font-family="sans-serif" font-size="18" font-weight="700">End-to-end pass rate by scenario</text>
<line x1="64" y1="284" x2="726" y2="284" stroke="#222" stroke-width="1"/>
<line x1="64" y1="52" x2="64" y2="284" stroke="#222" stroke-width="1"/>
<line x1="64" y1="284.0" x2="726" y2="284.0" stroke="#e6e6e6" stroke-width="1"/>
<text x="56" y="288.0" text-anchor="end" font-family="sans-serif" font-size="11" fill="#444">0%</text>
<line x1="64" y1="237.6" x2="726" y2="237.6" stroke="#e6e6e6" stroke-width="1"/>
<text x="56" y="241.6" text-anchor="end" font-family="sans-serif" font-size="11" fill="#444">20%</text>
<line x1="64" y1="191.2" x2="726" y2="191.2" stroke="#e6e6e6" stroke-width="1"/>
<text x="56" y="195.2" text-anchor="end" font-family="sans-serif" font-size="11" fill="#444">40%</text>
<line x1="64" y1="144.8" x2="726" y2="144.8" stroke="#e6e6e6" stroke-width="1"/>
<text x="56" y="148.8" text-anchor="end" font-family="sans-serif" font-size="11" fill="#444">60%</text>
<line x1="64" y1="98.4" x2="726" y2="98.4" stroke="#e6e6e6" stroke-width="1"/>
<text x="56" y="102.4" text-anchor="end" font-family="sans-serif" font-size="11" fill="#444">80%</text>
<line x1="64" y1="52.0" x2="726" y2="52.0" stroke="#e6e6e6" stroke-width="1"/>
<text x="56" y="56.0" text-anchor="end" font-family="sans-serif" font-size="11" fill="#444">100%</text>
<rect x="82.0" y="52.0" width="53.6" height="232.0" fill="#2f80ed" rx="3"/>
<text x="108.8" y="46.0" text-anchor="middle" font-family="sans-serif" font-size="11" fill="#222">100.0%</text>
<text x="108.8" y="306" text-anchor="middle" font-family="sans-serif" font-size="12" fill="#222">cpu</text>
<rect x="153.6" y="52.0" width="53.6" height="232.0" fill="#2f80ed" rx="3"/>
<text x="180.3" y="46.0" text-anchor="middle" font-family="sans-serif" font-size="11" fill="#222">100.0%</text>
<text x="180.3" y="306" text-anchor="middle" font-family="sans-serif" font-size="12" fill="#222">idle_cpu</text>
<rect x="225.1" y="52.0" width="53.6" height="232.0" fill="#2f80ed" rx="3"/>
<text x="251.9" y="46.0" text-anchor="middle" font-family="sans-serif" font-size="11" fill="#222">100.0%</text>
<text x="251.9" y="306" text-anchor="middle" font-family="sans-serif" font-size="12" fill="#222">idle_io</text>
<rect x="296.7" y="52.0" width="53.6" height="232.0" fill="#2f80ed" rx="3"/>
<text x="323.4" y="46.0" text-anchor="middle" font-family="sans-serif" font-size="11" fill="#222">100.0%</text>
<text x="323.4" y="306" text-anchor="middle" font-family="sans-serif" font-size="12" fill="#222">idle_lock</text>
<rect x="368.2" y="52.0" width="53.6" height="232.0" fill="#2f80ed" rx="3"/>
<text x="395.0" y="46.0" text-anchor="middle" font-family="sans-serif" font-size="11" fill="#222">100.0%</text>
<text x="395.0" y="306" text-anchor="middle" font-family="sans-serif" font-size="12" fill="#222">idle_syscall</text>
<rect x="439.8" y="52.0" width="53.6" height="232.0" fill="#2f80ed" rx="3"/>
<text x="466.6" y="46.0" text-anchor="middle" font-family="sans-serif" font-size="11" fill="#222">100.0%</text>
<text x="466.6" y="306" text-anchor="middle" font-family="sans-serif" font-size="12" fill="#222">io</text>
<rect x="511.3" y="52.0" width="53.6" height="232.0" fill="#2f80ed" rx="3"/>
<text x="538.1" y="46.0" text-anchor="middle" font-family="sans-serif" font-size="11" fill="#222">100.0%</text>
<text x="538.1" y="306" text-anchor="middle" font-family="sans-serif" font-size="12" fill="#222">lock</text>
<rect x="582.9" y="52.0" width="53.6" height="232.0" fill="#2f80ed" rx="3"/>
<text x="609.7" y="46.0" text-anchor="middle" font-family="sans-serif" font-size="11" fill="#222">100.0%</text>
<text x="609.7" y="306" text-anchor="middle" font-family="sans-serif" font-size="12" fill="#222">mem</text>
<rect x="654.4" y="52.0" width="53.6" height="232.0" fill="#2f80ed" rx="3"/>
<text x="681.2" y="46.0" text-anchor="middle" font-family="sans-serif" font-size="11" fill="#222">100.0%</text>
<text x="681.2" y="306" text-anchor="middle" font-family="sans-serif" font-size="12" fill="#222">syscall</text>
</svg>
